<mxfile host="app.diagrams.net" modified="2024-06-22T13:54:56.271Z" agent="Mozilla/5.0 (Macintosh; Intel Mac OS X 10_15_7) AppleWebKit/537.36 (KHTML, like Gecko) Chrome/126.0.0.0 Safari/537.36" version="24.6.2" etag="yWsY6XyV3sgkyqP2Seof" type="github">
  <diagram name="Page-1" id="ARtzNKkk1svNX6dtLUBq">
    <mxGraphModel>
      <root>
        <mxCell id="0" />
        <mxCell id="1" parent="0" />
      </root>
    </mxGraphModel>
  </diagram>
</mxfile>
